<?xml version="1.0" standalone="yes"?>
<svg xmlns="http://www.w3.org/2000/svg" width="735" height="628">
<path style="fill:#ffffff; stroke:none;" d="M0 0L0 628L735 628L735 0L0 0z"/>
<path style="fill:#1d1d1b; stroke:none;" d="M278 360C266.926 352.672 255.384 346.03 244 339.2C240.599 337.159 234.457 331.762 230.21 332.817C226.993 333.616 224.931 338.57 223.101 341C218.086 347.659 212.52 353.366 206 358.55C182.045 377.599 147.78 381.85 120 368.68C56.3847 338.521 52.5368 249.26 112 212.811C121.515 206.978 131.924 203.019 143 201.428C167.68 197.885 191.175 205.929 209.999 221.754C215.284 226.196 219.769 231.43 223.841 237C225.484 239.247 227.25 243.448 230.21 244.183C234.457 245.238 240.599 239.841 244 237.8C255.384 230.97 266.926 224.327 278 217C267.475 195.867 244.63 179.093 224 168.753C140.419 126.86 17.0985 172.745 10.0895 275C6.92477 321.171 24.4808 365.74 62 394.102C114.029 433.431 191.214 434.976 244 396.116C256.909 386.613 270.737 374.584 278 360M313 156C316.59 168.205 325.556 179.975 331.85 191C334.09 194.925 336.423 201.5 340.379 203.972C346.981 208.099 363.303 205 371 205L451 205L451 156L313 156M496 156L496 421L555 421L555 380C555 374.22 553.676 366.476 555.742 361C557.972 355.087 564.075 349.867 568 345C577.749 332.911 587.731 321.011 597.576 309C624.627 275.999 651.442 242.786 678.753 210C692.708 193.247 712.093 175.408 722 156L671 156L649.171 156.603L640.197 166L621.4 189L555 270L555 156L496 156M393 212L393 313C393 333.08 393.586 350.942 374 362.525C364.293 368.265 351.911 368 341 368L292 368L292 421C334.39 421 385.597 429.533 420 398.826C455.371 367.255 451 326.125 451 283L451 254C451 250.492 452.089 244.67 449.972 241.637C447.318 237.835 439.975 235.665 436 233.424C422.783 225.975 407.422 216.564 393 212z"/>
<path style="fill:#e30713; stroke:none;" d="M141 242.465C111.039 247.866 96.9763 285.908 112.468 311C122.982 328.029 143.047 334.176 162 330.533C189.452 325.257 203.809 290.217 191.623 266C182.266 247.406 160.995 238.859 141 242.465z"/>
<path style="fill:#1d1d1b; stroke:none;" d="M259 276L259 299L264 299L264 284L265 284L266 287C272.359 287.293 271 294.115 271 299L276 299C276 289.575 276.734 279.244 264 283L264 276L259 276M314 276L314 299L319 299L319 276L314 276M320 276L320 280L325 280L325 276L320 276M702 276L702 299L707 299L710 292C709.284 297.18 717.158 302.051 718 297C723.623 299.383 728.708 299.864 733 295L729 294L729 293L734 293C733.756 282.899 726.737 280.298 718 284C717.081 278.487 708.963 285.13 707 287L707 276L702 276M296 299L296 282C291.567 282.101 285.119 280.938 281.214 283.318C275.706 286.674 276.213 295.499 282.105 298.142C286.014 299.895 291.764 298.901 296 299M299 282L299 299L304 299C304.001 292.953 303.484 287.123 311 287L313 283L299 282M320 282L320 299L325 299L325 282L320 282M343 295L339 294L339 293L344 293C343.765 283.274 330.2 276.228 326.668 288.04C323.509 298.604 337.141 301.639 343 295M456 282C456 297.175 459.754 298.668 474 299L474 282L469 282L469 297L468 297L467 294C460.641 293.707 462 286.885 462 282L456 282M476 282L476 299L481 299L481 285L482 285C486.574 290.24 487.999 291.297 488 299L493 299C493 284.183 490.426 282.336 476 282M648.105 282.858C637.772 287.486 645.75 302.395 655.956 298.258C666.53 293.971 658.6 278.158 648.105 282.858M679 295L675 294L675 293L680 293C679.765 283.274 666.2 276.228 662.668 288.04C659.509 298.604 673.141 301.639 679 295M682 282L682 306L687 306L687 299C695.986 301.649 706.274 292.402 697.721 284.318C693.932 280.736 686.836 282.113 682 282z"/>
<path style="fill:#ffffff; stroke:none;" d="M717 284L711 290L711 291L718 297L717 284M289 294L290 297C290.59 295.59 290.973 294.536 290.907 292.942C290.345 279.264 276.578 295.204 289 294M338 294L338 293L333 289L339 289C332.627 283.298 329.042 294.77 338 294M651.275 287.256C648.286 288.652 649.237 294.877 652.907 293.654C656.804 292.355 655.146 285.448 651.275 287.256M674 294L674 293L669 289L675 289C668.627 283.298 665.042 294.77 674 294M687 298L688 298L689 295C701.628 296.224 688.001 278.354 687.044 292.979C686.935 294.643 687.001 296.334 687 298M728 294L728 293L723 289L729 289C722.627 283.298 719.042 294.77 728 294z"/>
<path style="fill:#1d1d1b; stroke:none;" d="M618 295C614.106 309.265 607.531 323.209 602.189 337C600.224 342.072 595.675 349.435 596.407 355C597.591 363.99 611.055 375.071 616.6 382C623.579 390.72 630.637 399.389 637.75 408C640.858 411.763 643.986 417.499 648.289 419.972C653.567 423.005 664.047 421 670 421L722 421L690.25 381L620 295L618 295z"/>
</svg>
